<svg width="86" height="86" viewBox="0 0 86 86" fill="none" xmlns="http://www.w3.org/2000/svg">
<circle cx="43" cy="43" r="43" fill="#00E6FE"/>
<g clip-path="url(#clip0_603_56)">
<path d="M63.4799 57.5768C63.4799 59.1589 62.195 60.4349 60.6218 60.4349C59.0485 60.4349 57.7637 59.1589 57.7637 57.5768C57.7637 55.9948 59.0485 54.7188 60.6218 54.7188C62.195 54.7188 63.4799 55.9948 63.4799 57.5768Z" fill="#1D1D1B"/>
<path d="M37.7493 60.9681L40.013 55.8812C36.8577 54.6052 34.6377 51.581 34.6552 48.0674C34.6639 45.8211 35.5729 43.7147 37.2161 42.1414C38.8505 40.5681 41.0269 39.6941 43.3343 39.6941H43.3781C44.6104 39.6941 45.7991 39.9563 46.8829 40.4195L49.138 35.3501C47.3811 34.5897 45.4408 34.1702 43.4043 34.1614H43.3343C40.1966 34.1614 37.1724 35.1666 34.7076 36.9846L34.7601 25.7532C34.7601 25.0103 34.4629 24.3111 33.921 23.7866C33.3966 23.2884 32.6973 23 31.9544 23H31.9369C30.4248 23 29.1575 24.2062 29.105 25.692L29.0002 48.0411C28.9827 51.7733 30.4598 55.2869 33.1606 57.9352C34.4978 59.2463 36.0536 60.2689 37.7493 60.9681Z" fill="#1D1D1B"/>
<path d="M57.2401 48.2944C57.0041 42.8317 53.6041 38.2168 48.7969 36.1104L46.5419 41.1798C47.4946 41.5993 48.3686 42.1849 49.1203 42.9278C50.7373 44.5186 51.6288 46.6337 51.62 48.88C51.6113 51.1176 50.7023 53.2152 49.0591 54.7973C47.4159 56.3793 45.2483 57.2533 42.9409 57.2533H42.8972C41.7609 57.2533 40.6684 57.026 39.672 56.6327L37.4082 61.7196C39.1038 62.4101 40.9481 62.7772 42.8447 62.7859C42.8709 62.7859 42.8884 62.7859 42.9146 62.7859C50.6149 62.7859 57.0303 56.7026 57.2139 49.2296V48.9936C57.2401 48.7402 57.2401 48.5129 57.2313 48.2944" fill="#1D1D1B"/>
</g>
<defs>
<clipPath id="clip0_603_56">
<rect width="34.4807" height="39.7861" fill="white" transform="translate(29 23)"/>
</clipPath>
</defs>
</svg>
